<svg t="1701601367084" class="icon" viewBox="0 0 1024 1024" version="1.1" xmlns="http://www.w3.org/2000/svg" p-id="1053" width="32" height="32"><path d="M883.3 256.21c-5.12-10.89-14.54-19.46-25.91-23.61-8.22-3.36-17.3-4.1-26.28-2.14L174.97 373.62c-12.23 2.67-22.43 10.02-28.73 20.7-6.12 10.38-7.63 22.53-4.25 34.23 3.38 11.71 11.49 21.66 22.27 27.34l102.19 57.22 49.14 217.08c3.21 16.09 14.15 29.4 29.33 35.65 15.3 6.3 32.6 4.48 46.25-4.87 0.44-0.3 0.86-0.62 1.27-0.95l99.3-80.29 115.7 128.19 0.31 0.34c10.49 11.09 24.75 17.15 39.61 17.15a56 56 0 0 0 11.03-1.11c18.64-3.78 33.74-16.69 40.38-34.51l185.78-498.66c4.33-11.6 3.88-24-1.25-34.92z m-36.22 20.95L661.3 775.82c-2.57 6.91-8.45 8.79-10.85 9.28-2.39 0.48-8.44 1.04-13.48-4.18L508.76 638.87c-7.12-7.89-19.16-8.83-27.42-2.15l-113.25 91.56c-3.27 1.97-6.34 1.22-7.92 0.57-1.66-0.68-4.56-2.45-5.35-6.56-0.04-0.22-0.09-0.44-0.14-0.66l-51.17-226.05a19.995 19.995 0 0 0-9.74-13.04l-110.22-61.71c-0.2-0.11-0.4-0.22-0.61-0.33-1.73-0.89-2.34-2.44-2.52-3.06-0.3-1.05-0.21-2 0.28-2.82 0.61-1.03 1.5-1.65 2.8-1.93l656.14-143.15c1.44-0.31 2.22-0.09 2.67 0.11 0.42 0.18 0.85 0.35 1.29 0.5 1.51 0.53 2.86 1.71 3.5 3.08 0.56 1.19 0.55 2.4-0.02 3.93z" p-id="1054"></path><path d="M740.05 327.25l-391 145c-9.45 3.51-14.82 13.5-12.52 23.32l34 145A19.998 19.998 0 0 0 390 656c4.53 0 9-1.54 12.61-4.48l357-290c7.6-6.17 9.61-16.94 4.76-25.44s-15.15-12.24-24.32-8.83zM402.18 600.34l-22.68-96.72 260.82-96.72-238.14 193.44z" p-id="1055"></path></svg>
